<svg xmlns="http://www.w3.org/2000/svg" xmlns:xlink="http://www.w3.org/1999/xlink" version="1.1" width="512px" height="512px" style="shape-rendering:geometricPrecision; text-rendering:geometricPrecision; image-rendering:optimizeQuality; fill-rule:evenodd; clip-rule:evenodd">
<g><path style="opacity:0.996" fill="#00e0f0" d="M 311.5,57.5 C 306.167,57.5 300.833,57.5 295.5,57.5C 295.5,48.8333 295.5,40.1667 295.5,31.5C 268.833,31.5 242.167,31.5 215.5,31.5C 215.5,40.1667 215.5,48.8333 215.5,57.5C 210.167,57.5 204.833,57.5 199.5,57.5C 199.333,44.8289 199.5,32.1623 200,19.5C 200.374,18.5838 200.874,17.7504 201.5,17C 219.412,15.8457 237.412,15.3457 255.5,15.5C 273.588,15.3457 291.588,15.8457 309.5,17C 310.126,17.7504 310.626,18.5838 311,19.5C 311.5,32.1623 311.667,44.8289 311.5,57.5 Z"/></g>
<g><path style="opacity:0.947" fill="#00d7f0" d="M 423.5,83.5 C 415.5,83.5 407.5,83.5 399.5,83.5C 394.854,79.1885 390.187,74.8551 385.5,70.5C 380.48,75.1884 375.48,79.8551 370.5,84.5C 363.167,83.8333 355.833,83.1667 348.5,82.5C 358.631,71.8683 368.965,61.3683 379.5,51C 383.5,49 387.5,49 391.5,51C 402.369,61.7016 413.035,72.5349 423.5,83.5 Z"/></g>
<g><path style="opacity:0.976" fill="#00d7f0" d="M 162.5,82.5 C 155.274,82.8486 148.274,83.8486 141.5,85.5C 136.187,80.5217 130.854,75.5217 125.5,70.5C 120.48,75.1884 115.48,79.8551 110.5,84.5C 102.709,83.5493 95.0421,83.216 87.5,83.5C 97.9646,72.5349 108.631,61.7016 119.5,51C 123.5,49 127.5,49 131.5,51C 142.035,61.3683 152.369,71.8683 162.5,82.5 Z"/></g>
<g><path style="opacity:0.992" fill="#00d7ef" d="M 199.5,57.5 C 204.833,57.5 210.167,57.5 215.5,57.5C 215.5,66.1667 215.5,74.8333 215.5,83.5C 206.983,83.8261 198.65,83.4927 190.5,82.5C 193.44,81.7979 196.273,80.7979 199,79.5C 199.5,72.1742 199.666,64.8409 199.5,57.5 Z"/></g>
<g><path style="opacity:1" fill="#00daf0" d="M 247.5,47.5 C 252.833,47.5 258.167,47.5 263.5,47.5C 263.5,52.8333 263.5,58.1667 263.5,63.5C 258.167,63.5 252.833,63.5 247.5,63.5C 247.5,58.1667 247.5,52.8333 247.5,47.5 Z"/></g>
<g><path style="opacity:0.995" fill="#00d7f0" d="M 295.5,57.5 C 300.833,57.5 306.167,57.5 311.5,57.5C 311.334,64.8409 311.5,72.1742 312,79.5C 314.727,80.7979 317.56,81.7979 320.5,82.5C 312.35,83.4927 304.017,83.8261 295.5,83.5C 295.5,74.8333 295.5,66.1667 295.5,57.5 Z"/></g>
<g><path style="opacity:0.963" fill="#00d1f0" d="M 87.5,83.5 C 95.0421,83.216 102.709,83.5493 110.5,84.5C 102.167,93.5 93.5,102.167 84.5,110.5C 77.1667,109.833 69.8333,109.167 62.5,108.5C 70.5,99.8333 78.8333,91.5 87.5,83.5 Z"/></g>
<g><path style="opacity:0.964" fill="#00d2f0" d="M 162.5,82.5 C 165.512,85.3451 168.679,88.0118 172,90.5C 178.251,87.9562 184.417,85.2895 190.5,82.5C 198.65,83.4927 206.983,83.8261 215.5,83.5C 216.186,87.287 215.186,90.4537 212.5,93C 197.997,98.0555 183.83,103.889 170,110.5C 168.112,110.204 166.278,109.704 164.5,109C 156.631,101.298 148.964,93.4649 141.5,85.5C 148.274,83.8486 155.274,82.8486 162.5,82.5 Z"/></g>
<g><path style="opacity:0.973" fill="#00d2f0" d="M 320.5,82.5 C 326.583,85.2895 332.749,87.9562 339,90.5C 342.321,88.0118 345.488,85.3451 348.5,82.5C 355.833,83.1667 363.167,83.8333 370.5,84.5C 362.702,92.7983 354.702,100.965 346.5,109C 344.722,109.704 342.888,110.204 341,110.5C 327.646,103.826 313.813,98.3258 299.5,94C 295.952,91.4093 294.618,87.9093 295.5,83.5C 304.017,83.8261 312.35,83.4927 320.5,82.5 Z"/></g>
<g><path style="opacity:0.98" fill="#00d1f0" d="M 399.5,83.5 C 407.5,83.5 415.5,83.5 423.5,83.5C 432.167,91.5 440.5,99.8333 448.5,108.5C 441.266,109.198 433.933,109.864 426.5,110.5C 417.167,101.833 408.167,92.8333 399.5,83.5 Z"/></g>
<g><path style="opacity:0.96" fill="#00cbf0" d="M 62.5,108.5 C 69.8333,109.167 77.1667,109.833 84.5,110.5C 79.8551,115.48 75.1884,120.48 70.5,125.5C 74.5219,129.854 78.5219,134.187 82.5,138.5C 75.1667,139.167 67.8333,139.833 60.5,140.5C 54.8326,136.851 51.1659,131.851 49.5,125.5C 49.5153,123.366 50.0153,121.366 51,119.5C 54.7023,115.63 58.5357,111.963 62.5,108.5 Z"/></g>
<g><path style="opacity:0.95" fill="#00cbf0" d="M 448.5,108.5 C 452.464,111.963 456.298,115.63 460,119.5C 462,123.5 462,127.5 460,131.5C 457.297,134.371 454.464,137.038 451.5,139.5C 443.648,139.825 435.982,139.492 428.5,138.5C 432.478,134.187 436.478,129.854 440.5,125.5C 435.812,120.48 431.145,115.48 426.5,110.5C 433.933,109.864 441.266,109.198 448.5,108.5 Z"/></g>
<g><path style="opacity:0.969" fill="#01ccef" d="M 112.5,102.5 C 117.863,105.022 122.197,108.855 125.5,114C 122.333,118.5 118.5,122.333 114,125.5C 109.5,122.333 105.667,118.5 102.5,114C 105.656,110.011 108.989,106.177 112.5,102.5 Z"/></g>
<g><path style="opacity:0.961" fill="#00cef0" d="M 395.5,102.5 C 400.863,105.022 405.197,108.855 408.5,114C 405.333,118.5 401.5,122.333 397,125.5C 392.5,122.333 388.667,118.5 385.5,114C 388.656,110.011 391.989,106.177 395.5,102.5 Z"/></g>
<g><path style="opacity:0.958" fill="#00caf0" d="M 341.5,139.5 C 330.833,139.5 320.167,139.5 309.5,139.5C 273.031,123.562 236.698,123.895 200.5,140.5C 190.5,139.833 180.5,139.167 170.5,138.5C 214.505,108.646 261.505,103.146 311.5,122C 322.384,126.598 332.384,132.432 341.5,139.5 Z"/></g>
<g><path style="opacity:0.944" fill="#00c4f0" d="M 428.5,138.5 C 435.982,139.492 443.648,139.825 451.5,139.5C 442.833,148.833 433.833,157.833 424.5,166.5C 416.932,165.188 409.265,165.188 401.5,166.5C 409.778,156.553 418.778,147.22 428.5,138.5 Z"/></g>
<g><path style="opacity:0.98" fill="#00c5f0" d="M 82.5,138.5 C 91.8333,147.167 100.833,156.167 109.5,165.5C 101.648,165.175 93.9818,165.508 86.5,166.5C 77.5,158.167 68.8333,149.5 60.5,140.5C 67.8333,139.833 75.1667,139.167 82.5,138.5 Z"/></g>
<g><path style="opacity:0.958" fill="#00c4f0" d="M 170.5,138.5 C 180.5,139.167 190.5,139.833 200.5,140.5C 187.397,147.274 175.397,155.607 164.5,165.5C 157.313,165.825 150.313,165.491 143.5,164.5C 151.206,154.46 160.206,145.793 170.5,138.5 Z"/></g>
<g><path style="opacity:0.955" fill="#00c4f0" d="M 309.5,139.5 C 320.167,139.5 330.833,139.5 341.5,139.5C 351.794,146.793 360.794,155.46 368.5,165.5C 361.167,165.5 353.833,165.5 346.5,165.5C 335.251,155.245 322.918,146.578 309.5,139.5 Z"/></g>
<g><path style="opacity:0.963" fill="#00bff0" d="M 329.5,193.5 C 328.244,193.539 327.244,193.039 326.5,192C 318.841,191.5 311.174,191.334 303.5,191.5C 280.946,176.222 256.613,172.388 230.5,180C 222.532,183.317 214.866,187.15 207.5,191.5C 199.648,191.825 191.982,191.492 184.5,190.5C 209.329,164.392 239.663,154.558 275.5,161C 297.19,165.888 315.19,176.721 329.5,193.5 Z"/></g>
<g><path style="opacity:0.959" fill="#00bef0" d="M 109.5,165.5 C 110.39,167.782 110.556,170.115 110,172.5C 106.882,178.401 104.049,184.401 101.5,190.5C 95.2252,191.418 88.8918,191.751 82.5,191.5C 85.0158,184.964 87.6825,178.464 90.5,172C 89.3498,170.019 88.0165,168.186 86.5,166.5C 93.9818,165.508 101.648,165.175 109.5,165.5 Z"/></g>
<g><path style="opacity:0.955" fill="#00bef0" d="M 143.5,164.5 C 150.313,165.491 157.313,165.825 164.5,165.5C 157.031,173.96 150.364,182.96 144.5,192.5C 138.69,191.51 132.69,191.177 126.5,191.5C 130.92,181.649 136.586,172.649 143.5,164.5 Z"/></g>
<g><path style="opacity:0.962" fill="#00bef0" d="M 346.5,165.5 C 353.833,165.5 361.167,165.5 368.5,165.5C 375.015,173.368 380.348,182.035 384.5,191.5C 378.167,191.5 371.833,191.5 365.5,191.5C 359.94,182.272 353.606,173.606 346.5,165.5 Z"/></g>
<g><path style="opacity:0.964" fill="#00bef0" d="M 424.5,166.5 C 422.984,168.186 421.65,170.019 420.5,172C 423.318,178.464 425.984,184.964 428.5,191.5C 422.409,191.211 416.409,191.545 410.5,192.5C 407.62,185.738 404.453,179.072 401,172.5C 400.322,170.402 400.489,168.402 401.5,166.5C 409.265,165.188 416.932,165.188 424.5,166.5 Z"/></g>
<g><path style="opacity:0.989" fill="#00b8f0" d="M 101.5,190.5 C 98.3158,197.217 95.8158,204.217 94,211.5C 92.8333,212.667 91.6667,213.833 90.5,215C 70.4745,214.843 50.8078,215.676 31.5,217.5C 26.1667,217.5 20.8333,217.5 15.5,217.5C 15.3342,212.821 15.5008,208.155 16,203.5C 16.5,201.667 17.6667,200.5 19.5,200C 39.5,199.667 59.5,199.333 79.5,199C 80.6011,196.528 81.6011,194.028 82.5,191.5C 88.8918,191.751 95.2252,191.418 101.5,190.5 Z"/></g>
<g><path style="opacity:0.961" fill="#00b8f0" d="M 184.5,190.5 C 191.982,191.492 199.648,191.825 207.5,191.5C 199.07,199.262 191.736,207.928 185.5,217.5C 179.31,217.823 173.31,217.49 167.5,216.5C 171.601,206.747 177.268,198.081 184.5,190.5 Z"/></g>
<g><path style="opacity:0.954" fill="#00b8f0" d="M 126.5,191.5 C 132.69,191.177 138.69,191.51 144.5,192.5C 140.523,200.78 136.856,209.113 133.5,217.5C 127.833,217.5 122.167,217.5 116.5,217.5C 118.194,208.127 121.527,199.46 126.5,191.5 Z"/></g>
<g><path style="opacity:0.955" fill="#00b8f0" d="M 303.5,191.5 C 311.174,191.334 318.841,191.5 326.5,192C 327.244,193.039 328.244,193.539 329.5,193.5C 335.419,200.325 340.086,207.992 343.5,216.5C 337.69,217.49 331.69,217.823 325.5,217.5C 319.264,207.928 311.93,199.262 303.5,191.5 Z"/></g>
<g><path style="opacity:0.961" fill="#00b8f0" d="M 365.5,191.5 C 371.833,191.5 378.167,191.5 384.5,191.5C 389.473,199.46 392.806,208.127 394.5,217.5C 388.741,217.214 383.075,217.548 377.5,218.5C 374.657,208.965 370.657,199.965 365.5,191.5 Z"/></g>
<g><path style="opacity:0.989" fill="#00b7f0" d="M 428.5,191.5 C 429.399,194.028 430.399,196.528 431.5,199C 451.5,199.333 471.5,199.667 491.5,200C 493.333,200.5 494.5,201.667 495,203.5C 495.499,208.155 495.666,212.821 495.5,217.5C 490.167,217.5 484.833,217.5 479.5,217.5C 460.192,215.676 440.526,214.843 420.5,215C 418.951,213.786 417.785,212.286 417,210.5C 415.12,204.357 412.953,198.357 410.5,192.5C 416.409,191.545 422.409,191.211 428.5,191.5 Z"/></g>
<g><path style="opacity:0.961" fill="#00b3f0" d="M 303.5,247.5 C 297.642,247.178 291.975,247.511 286.5,248.5C 279.167,228.666 265.167,221.166 244.5,226C 234.491,230.171 227.825,237.338 224.5,247.5C 218.741,247.214 213.075,247.548 207.5,248.5C 213.081,222.583 229.081,208.916 255.5,207.5C 281.471,208.8 297.471,222.134 303.5,247.5 Z"/></g>
<g><path style="opacity:1" fill="#00b1f0" d="M 15.5,217.5 C 20.8333,217.5 26.1667,217.5 31.5,217.5C 31.5,227.5 31.5,237.5 31.5,247.5C 26.1667,247.5 20.8333,247.5 15.5,247.5C 15.5,237.5 15.5,227.5 15.5,217.5 Z"/></g>
<g><path style="opacity:0.954" fill="#00b2f0" d="M 116.5,217.5 C 122.167,217.5 127.833,217.5 133.5,217.5C 130.804,227.318 129.137,237.318 128.5,247.5C 122.833,247.5 117.167,247.5 111.5,247.5C 111.693,237.127 113.36,227.127 116.5,217.5 Z"/></g>
<g><path style="opacity:0.956" fill="#00b2f0" d="M 167.5,216.5 C 173.31,217.49 179.31,217.823 185.5,217.5C 180.652,226.882 177.652,236.882 176.5,247.5C 170.833,247.5 165.167,247.5 159.5,247.5C 160.156,236.538 162.823,226.204 167.5,216.5 Z"/></g>
<g><path style="opacity:0.958" fill="#00b2f0" d="M 343.5,216.5 C 348.177,226.204 350.844,236.538 351.5,247.5C 345.741,247.786 340.075,247.452 334.5,246.5C 333.197,236.281 330.197,226.614 325.5,217.5C 331.69,217.823 337.69,217.49 343.5,216.5 Z"/></g>
<g><path style="opacity:0.953" fill="#00b2f0" d="M 394.5,217.5 C 397.64,227.127 399.307,237.127 399.5,247.5C 393.741,247.214 388.075,247.548 382.5,248.5C 382.121,238.274 380.455,228.274 377.5,218.5C 383.075,217.548 388.741,217.214 394.5,217.5 Z"/></g>
<g><path style="opacity:1" fill="#00b1f0" d="M 479.5,217.5 C 484.833,217.5 490.167,217.5 495.5,217.5C 495.5,227.5 495.5,237.5 495.5,247.5C 490.167,247.5 484.833,247.5 479.5,247.5C 479.5,237.5 479.5,227.5 479.5,217.5 Z"/></g>
<g><path style="opacity:0.991" fill="#00abf0" d="M 334.5,246.5 C 340.075,247.452 345.741,247.786 351.5,247.5C 351.5,256.167 351.5,264.833 351.5,273.5C 346.167,273.5 340.833,273.5 335.5,273.5C 335.499,264.485 335.166,255.485 334.5,246.5 Z"/></g>
<g><path style="opacity:1" fill="#00abf0" d="M 15.5,247.5 C 20.8333,247.5 26.1667,247.5 31.5,247.5C 31.5,256.167 31.5,264.833 31.5,273.5C 26.1667,273.5 20.8333,273.5 15.5,273.5C 15.5,264.833 15.5,256.167 15.5,247.5 Z"/></g>
<g><path style="opacity:1" fill="#00acf0" d="M 47.5,247.5 C 52.8333,247.5 58.1667,247.5 63.5,247.5C 63.5,252.833 63.5,258.167 63.5,263.5C 58.1667,263.5 52.8333,263.5 47.5,263.5C 47.5,258.167 47.5,252.833 47.5,247.5 Z"/></g>
<g><path style="opacity:0.99" fill="#00abf0" d="M 111.5,247.5 C 117.167,247.5 122.833,247.5 128.5,247.5C 127.797,256.149 127.464,264.815 127.5,273.5C 122.167,273.5 116.833,273.5 111.5,273.5C 111.5,264.833 111.5,256.167 111.5,247.5 Z"/></g>
<g><path style="opacity:0.99" fill="#00abf0" d="M 159.5,247.5 C 165.167,247.5 170.833,247.5 176.5,247.5C 175.797,256.149 175.464,264.815 175.5,273.5C 170.167,273.5 164.833,273.5 159.5,273.5C 159.5,264.833 159.5,256.167 159.5,247.5 Z"/></g>
<g><path style="opacity:0.968" fill="#00abf0" d="M 224.5,247.5 C 223.562,256.267 224.896,264.6 228.5,272.5C 222.69,273.49 216.69,273.823 210.5,273.5C 207.826,265.432 206.826,257.099 207.5,248.5C 213.075,247.548 218.741,247.214 224.5,247.5 Z"/></g>
<g><path style="opacity:0.958" fill="#00abf0" d="M 303.5,247.5 C 304.193,256.43 303.193,265.097 300.5,273.5C 294.167,273.5 287.833,273.5 281.5,273.5C 285.94,265.789 287.606,257.456 286.5,248.5C 291.975,247.511 297.642,247.178 303.5,247.5 Z"/></g>
<g><path style="opacity:0.992" fill="#00abf0" d="M 399.5,247.5 C 399.5,256.167 399.5,264.833 399.5,273.5C 394.167,273.5 388.833,273.5 383.5,273.5C 383.573,265.146 383.24,256.812 382.5,248.5C 388.075,247.548 393.741,247.214 399.5,247.5 Z"/></g>
<g><path style="opacity:1" fill="#00acf0" d="M 447.5,247.5 C 452.833,247.5 458.167,247.5 463.5,247.5C 463.5,252.833 463.5,258.167 463.5,263.5C 458.167,263.5 452.833,263.5 447.5,263.5C 447.5,258.167 447.5,252.833 447.5,247.5 Z"/></g>
<g><path style="opacity:1" fill="#00abf0" d="M 479.5,247.5 C 484.833,247.5 490.167,247.5 495.5,247.5C 495.5,256.167 495.5,264.833 495.5,273.5C 490.167,273.5 484.833,273.5 479.5,273.5C 479.5,264.833 479.5,256.167 479.5,247.5 Z"/></g>
<g><path style="opacity:0.965" fill="#00a5f0" d="M 228.5,272.5 C 238.18,285.337 250.846,289.504 266.5,285C 272.329,282.104 277.329,278.271 281.5,273.5C 287.833,273.5 294.167,273.5 300.5,273.5C 295.251,285.75 286.584,294.75 274.5,300.5C 261.833,299.167 249.167,299.167 236.5,300.5C 224.42,294.754 215.753,285.754 210.5,273.5C 216.69,273.823 222.69,273.49 228.5,272.5 Z"/></g>
<g><path style="opacity:1" fill="#00a5f0" d="M 111.5,273.5 C 116.833,273.5 122.167,273.5 127.5,273.5C 127.5,282.167 127.5,290.833 127.5,299.5C 122.167,299.5 116.833,299.5 111.5,299.5C 111.5,290.833 111.5,282.167 111.5,273.5 Z"/></g>
<g><path style="opacity:1" fill="#00a5f0" d="M 159.5,273.5 C 164.833,273.5 170.167,273.5 175.5,273.5C 175.5,282.167 175.5,290.833 175.5,299.5C 170.167,299.5 164.833,299.5 159.5,299.5C 159.5,290.833 159.5,282.167 159.5,273.5 Z"/></g>
<g><path style="opacity:1" fill="#00a5f0" d="M 335.5,273.5 C 340.833,273.5 346.167,273.5 351.5,273.5C 351.5,282.167 351.5,290.833 351.5,299.5C 346.167,299.5 340.833,299.5 335.5,299.5C 335.5,290.833 335.5,282.167 335.5,273.5 Z"/></g>
<g><path style="opacity:1" fill="#00a5f0" d="M 383.5,273.5 C 388.833,273.5 394.167,273.5 399.5,273.5C 399.5,282.167 399.5,290.833 399.5,299.5C 394.167,299.5 388.833,299.5 383.5,299.5C 383.5,290.833 383.5,282.167 383.5,273.5 Z"/></g>
<g><path style="opacity:0.988" fill="#00a2f0" d="M 15.5,273.5 C 20.8333,273.5 26.1667,273.5 31.5,273.5C 31.5,280.833 31.5,288.167 31.5,295.5C 51.1695,295.333 70.8362,295.5 90.5,296C 95.8333,301 95.8333,306 90.5,311C 66.8333,311.667 43.1667,311.667 19.5,311C 17.6667,310.5 16.5,309.333 16,307.5C 15.5001,296.172 15.3335,284.838 15.5,273.5 Z"/></g>
<g><path style="opacity:1" fill="#009ff0" d="M 111.5,299.5 C 116.833,299.5 122.167,299.5 127.5,299.5C 127.5,308.167 127.5,316.833 127.5,325.5C 122.167,325.5 116.833,325.5 111.5,325.5C 111.5,316.833 111.5,308.167 111.5,299.5 Z"/></g>
<g><path style="opacity:1" fill="#009ff0" d="M 159.5,299.5 C 164.833,299.5 170.167,299.5 175.5,299.5C 175.5,308.167 175.5,316.833 175.5,325.5C 170.167,325.5 164.833,325.5 159.5,325.5C 159.5,316.833 159.5,308.167 159.5,299.5 Z"/></g>
<g><path style="opacity:0.988" fill="#009ff0" d="M 236.5,300.5 C 249.167,299.167 261.833,299.167 274.5,300.5C 271.179,301.495 267.846,302.495 264.5,303.5C 263.503,310.803 263.169,318.137 263.5,325.5C 258.167,325.5 252.833,325.5 247.5,325.5C 247.831,318.137 247.497,310.803 246.5,303.5C 243.154,302.495 239.821,301.495 236.5,300.5 Z"/></g>
<g><path style="opacity:1" fill="#009ff0" d="M 335.5,299.5 C 340.833,299.5 346.167,299.5 351.5,299.5C 351.5,308.167 351.5,316.833 351.5,325.5C 346.167,325.5 340.833,325.5 335.5,325.5C 335.5,316.833 335.5,308.167 335.5,299.5 Z"/></g>
<g><path style="opacity:1" fill="#009ff0" d="M 383.5,299.5 C 388.833,299.5 394.167,299.5 399.5,299.5C 399.5,308.167 399.5,316.833 399.5,325.5C 394.167,325.5 388.833,325.5 383.5,325.5C 383.5,316.833 383.5,308.167 383.5,299.5 Z"/></g>
<g><path style="opacity:0.992" fill="#00a2f0" d="M 479.5,273.5 C 484.833,273.5 490.167,273.5 495.5,273.5C 495.667,284.838 495.5,296.172 495,307.5C 494.5,309.333 493.333,310.5 491.5,311C 467.5,311.667 443.5,311.667 419.5,311C 417.667,310.5 416.5,309.333 416,307.5C 415.183,304.036 415.517,300.702 417,297.5C 417.75,296.874 418.584,296.374 419.5,296C 439.497,295.5 459.497,295.333 479.5,295.5C 479.5,288.167 479.5,280.833 479.5,273.5 Z"/></g>
<g><path style="opacity:0.965" fill="#0099f0" d="M 111.5,325.5 C 116.833,325.5 122.167,325.5 127.5,325.5C 127.897,330.959 127.397,336.292 126,341.5C 119.268,346.413 112.435,351.08 105.5,355.5C 96.3178,355.827 87.3178,355.493 78.5,354.5C 89.432,346.749 100.265,338.749 111,330.5C 111.494,328.866 111.66,327.199 111.5,325.5 Z"/></g>
<g><path style="opacity:1" fill="#0098f0" d="M 159.5,325.5 C 164.833,325.5 170.167,325.5 175.5,325.5C 175.5,335.5 175.5,345.5 175.5,355.5C 170.167,355.5 164.833,355.5 159.5,355.5C 159.5,345.5 159.5,335.5 159.5,325.5 Z"/></g>
<g><path style="opacity:1" fill="#0098f0" d="M 247.5,325.5 C 252.833,325.5 258.167,325.5 263.5,325.5C 263.5,335.5 263.5,345.5 263.5,355.5C 258.167,355.5 252.833,355.5 247.5,355.5C 247.5,345.5 247.5,335.5 247.5,325.5 Z"/></g>
<g><path style="opacity:1" fill="#0098f0" d="M 335.5,325.5 C 340.833,325.5 346.167,325.5 351.5,325.5C 351.5,335.5 351.5,345.5 351.5,355.5C 346.167,355.5 340.833,355.5 335.5,355.5C 335.5,345.5 335.5,335.5 335.5,325.5 Z"/></g>
<g><path style="opacity:0.968" fill="#0099f0" d="M 383.5,325.5 C 388.833,325.5 394.167,325.5 399.5,325.5C 398.959,328.652 399.959,331.152 402.5,333C 413.255,340.032 423.588,347.532 433.5,355.5C 424.167,355.5 414.833,355.5 405.5,355.5C 398.565,351.08 391.732,346.413 385,341.5C 383.603,336.292 383.103,330.959 383.5,325.5 Z"/></g>
<g><path style="opacity:0.962" fill="#0093f0" d="M 78.5,354.5 C 87.3178,355.493 96.3178,355.827 105.5,355.5C 93.8821,363.783 82.5487,372.45 71.5,381.5C 66.1667,381.5 60.8333,381.5 55.5,381.5C 55.1463,377.363 55.6463,373.363 57,369.5C 64.0466,364.28 71.2132,359.28 78.5,354.5 Z"/></g>
<g><path style="opacity:0.978" fill="#0091f0" d="M 159.5,355.5 C 164.833,355.5 170.167,355.5 175.5,355.5C 175.5,359.833 175.5,364.167 175.5,368.5C 183.225,370.022 189.225,374.022 193.5,380.5C 176.167,381.833 158.833,381.833 141.5,380.5C 145.775,374.022 151.775,370.022 159.5,368.5C 159.5,364.167 159.5,359.833 159.5,355.5 Z"/></g>
<g><path style="opacity:1" fill="#0092f0" d="M 247.5,355.5 C 252.833,355.5 258.167,355.5 263.5,355.5C 263.5,364.167 263.5,372.833 263.5,381.5C 258.167,381.5 252.833,381.5 247.5,381.5C 247.5,372.833 247.5,364.167 247.5,355.5 Z"/></g>
<g><path style="opacity:0.978" fill="#0091f0" d="M 335.5,355.5 C 340.833,355.5 346.167,355.5 351.5,355.5C 351.5,359.833 351.5,364.167 351.5,368.5C 359.225,370.022 365.225,374.022 369.5,380.5C 352.167,381.833 334.833,381.833 317.5,380.5C 321.775,374.022 327.775,370.022 335.5,368.5C 335.5,364.167 335.5,359.833 335.5,355.5 Z"/></g>
<g><path style="opacity:0.967" fill="#0093f0" d="M 405.5,355.5 C 414.833,355.5 424.167,355.5 433.5,355.5C 440.435,359.92 447.268,364.587 454,369.5C 455.354,373.363 455.854,377.363 455.5,381.5C 450.167,381.5 444.833,381.5 439.5,381.5C 428.451,372.45 417.118,363.783 405.5,355.5 Z"/></g>
<g><path style="opacity:0.964" fill="#008cf0" d="M 141.5,380.5 C 158.833,381.833 176.167,381.833 193.5,380.5C 196.357,383.546 198.19,387.213 199,391.5C 199.817,397.016 199.651,402.35 198.5,407.5C 192.5,407.5 186.5,407.5 180.5,407.5C 185.103,391.598 179.103,384.098 162.5,385C 153.33,389.514 150.33,396.681 153.5,406.5C 148.025,407.489 142.358,407.822 136.5,407.5C 135.349,402.35 135.183,397.016 136,391.5C 136.81,387.213 138.643,383.546 141.5,380.5 Z"/></g>
<g><path style="opacity:0.961" fill="#008cf0" d="M 317.5,380.5 C 334.833,381.833 352.167,381.833 369.5,380.5C 372.357,383.546 374.19,387.213 375,391.5C 375.817,397.016 375.651,402.35 374.5,407.5C 368.642,407.822 362.975,407.489 357.5,406.5C 360.514,391.016 354.18,383.849 338.5,385C 329.33,389.514 326.33,396.681 329.5,406.5C 324.025,407.489 318.358,407.822 312.5,407.5C 311.349,402.35 311.183,397.016 312,391.5C 312.81,387.213 314.643,383.546 317.5,380.5 Z"/></g>
<g><path style="opacity:1" fill="#008cf0" d="M 55.5,381.5 C 60.8333,381.5 66.1667,381.5 71.5,381.5C 71.5,390.167 71.5,398.833 71.5,407.5C 66.1667,407.5 60.8333,407.5 55.5,407.5C 55.5,398.833 55.5,390.167 55.5,381.5 Z"/></g>
<g><path style="opacity:1" fill="#008cf0" d="M 247.5,381.5 C 252.833,381.5 258.167,381.5 263.5,381.5C 263.5,390.167 263.5,398.833 263.5,407.5C 258.167,407.5 252.833,407.5 247.5,407.5C 247.5,398.833 247.5,390.167 247.5,381.5 Z"/></g>
<g><path style="opacity:1" fill="#008cf0" d="M 439.5,381.5 C 444.833,381.5 450.167,381.5 455.5,381.5C 455.5,390.167 455.5,398.833 455.5,407.5C 450.167,407.5 444.833,407.5 439.5,407.5C 439.5,398.833 439.5,390.167 439.5,381.5 Z"/></g>
<g><path style="opacity:0.999" fill="#0086f0" d="M 55.5,407.5 C 60.8333,407.5 66.1667,407.5 71.5,407.5C 71.1739,416.017 71.5073,424.35 72.5,432.5C 66.5,433.833 60.5,433.833 54.5,432.5C 55.4927,424.35 55.8261,416.017 55.5,407.5 Z"/></g>
<g><path style="opacity:0.965" fill="#0187f0" d="M 153.5,406.5 C 159.487,414.844 167.153,416.677 176.5,412C 178.041,410.629 179.375,409.129 180.5,407.5C 186.5,407.5 192.5,407.5 198.5,407.5C 196.376,418.464 190.043,425.964 179.5,430C 163.367,435.066 150.2,430.899 140,417.5C 137.965,414.439 136.799,411.105 136.5,407.5C 142.358,407.822 148.025,407.489 153.5,406.5 Z"/></g>
<g><path style="opacity:0.999" fill="#0086f0" d="M 247.5,407.5 C 252.833,407.5 258.167,407.5 263.5,407.5C 263.174,416.017 263.507,424.35 264.5,432.5C 258.5,433.833 252.5,433.833 246.5,432.5C 247.493,424.35 247.826,416.017 247.5,407.5 Z"/></g>
<g><path style="opacity:0.964" fill="#0187f0" d="M 329.5,406.5 C 335.487,414.844 343.153,416.677 352.5,412C 354.402,410.27 356.069,408.437 357.5,406.5C 362.975,407.489 368.642,407.822 374.5,407.5C 372.376,418.464 366.043,425.964 355.5,430C 339.367,435.066 326.2,430.899 316,417.5C 313.965,414.439 312.799,411.105 312.5,407.5C 318.358,407.822 324.025,407.489 329.5,406.5 Z"/></g>
<g><path style="opacity:0.999" fill="#0086f0" d="M 439.5,407.5 C 444.833,407.5 450.167,407.5 455.5,407.5C 455.174,416.017 455.507,424.35 456.5,432.5C 450.5,433.833 444.5,433.833 438.5,432.5C 439.493,424.35 439.826,416.017 439.5,407.5 Z"/></g>
<g><path style="opacity:0.962" fill="#0080f0" d="M 54.5,432.5 C 60.5,433.833 66.5,433.833 72.5,432.5C 87.3744,437.387 95.0411,447.721 95.5,463.5C 89.5368,462.955 83.8701,463.621 78.5,465.5C 78.7932,455.128 73.7932,449.461 63.5,448.5C 54.16,449.173 49.16,454.173 48.5,463.5C 42.8333,463.5 37.1667,463.5 31.5,463.5C 31.9589,447.721 39.6256,437.387 54.5,432.5 Z"/></g>
<g><path style="opacity:0.964" fill="#0080f0" d="M 246.5,432.5 C 252.5,433.833 258.5,433.833 264.5,432.5C 279.374,437.387 287.041,447.721 287.5,463.5C 281.833,463.5 276.167,463.5 270.5,463.5C 269.84,454.173 264.84,449.173 255.5,448.5C 246.628,449.039 241.628,453.705 240.5,462.5C 234.925,463.452 229.259,463.786 223.5,463.5C 223.959,447.721 231.626,437.387 246.5,432.5 Z"/></g>
<g><path style="opacity:0.964" fill="#0080f0" d="M 438.5,432.5 C 444.5,433.833 450.5,433.833 456.5,432.5C 471.374,437.387 479.041,447.721 479.5,463.5C 473.833,463.5 468.167,463.5 462.5,463.5C 461.081,451.611 454.415,446.778 442.5,449C 435.206,452.085 431.873,457.585 432.5,465.5C 427.13,463.621 421.463,462.955 415.5,463.5C 415.959,447.721 423.626,437.387 438.5,432.5 Z"/></g>
<g><path style="opacity:0.967" fill="#0078f0" d="M 31.5,463.5 C 37.1667,463.5 42.8333,463.5 48.5,463.5C 49.16,472.827 54.16,477.827 63.5,478.5C 71.9114,478.088 76.9114,473.755 78.5,465.5C 83.8701,463.621 89.5368,462.955 95.5,463.5C 94.3825,483.619 83.7158,494.619 63.5,496.5C 43.2842,494.619 32.6175,483.619 31.5,463.5 Z"/></g>
<g><path style="opacity:0.967" fill="#0078f0" d="M 240.5,462.5 C 240.686,472.352 245.686,477.685 255.5,478.5C 264.84,477.827 269.84,472.827 270.5,463.5C 276.167,463.5 281.833,463.5 287.5,463.5C 286.383,483.619 275.716,494.619 255.5,496.5C 235.284,494.619 224.617,483.619 223.5,463.5C 229.259,463.786 234.925,463.452 240.5,462.5 Z"/></g>
<g><path style="opacity:0.967" fill="#0078f0" d="M 415.5,463.5 C 421.463,462.955 427.13,463.621 432.5,465.5C 436.441,477.966 444.441,481.466 456.5,476C 460.524,472.787 462.524,468.62 462.5,463.5C 468.167,463.5 473.833,463.5 479.5,463.5C 478.383,483.619 467.716,494.619 447.5,496.5C 427.284,494.619 416.617,483.619 415.5,463.5 Z"/></g>
</svg>
